<svg xmlns="http://www.w3.org/2000/svg" xmlns:xlink="http://www.w3.org/1999/xlink" width="500" zoomAndPan="magnify" viewBox="0 0 375 374.999991" height="500" preserveAspectRatio="xMidYMid meet" version="1.0"><defs><clipPath id="a975dde15d"><path d="M 99 332 L 135 332 L 135 367.425781 L 99 367.425781 Z M 99 332 " clip-rule="nonzero"/></clipPath><clipPath id="4f817c01ba"><path d="M 275 332 L 312 332 L 312 367.425781 L 275 367.425781 Z M 275 332 " clip-rule="nonzero"/></clipPath></defs><g clip-path="url(#a975dde15d)"><path fill="#ffffff" d="M 134.515625 349.867188 C 134.515625 350.449219 134.488281 351.023438 134.429688 351.601562 C 134.375 352.175781 134.289062 352.75 134.175781 353.316406 C 134.0625 353.886719 133.921875 354.445312 133.753906 355 C 133.585938 355.554688 133.390625 356.097656 133.171875 356.632812 C 132.949219 357.167969 132.703125 357.691406 132.429688 358.203125 C 132.15625 358.710938 131.859375 359.207031 131.535156 359.6875 C 131.214844 360.171875 130.871094 360.636719 130.503906 361.082031 C 130.136719 361.53125 129.746094 361.957031 129.339844 362.367188 C 128.929688 362.777344 128.5 363.164062 128.054688 363.53125 C 127.605469 363.898438 127.140625 364.246094 126.660156 364.566406 C 126.179688 364.886719 125.683594 365.183594 125.171875 365.457031 C 124.660156 365.730469 124.136719 365.976562 123.605469 366.199219 C 123.070312 366.421875 122.523438 366.617188 121.96875 366.785156 C 121.417969 366.953125 120.855469 367.09375 120.289062 367.207031 C 119.71875 367.316406 119.148438 367.402344 118.570312 367.460938 C 117.996094 367.515625 117.417969 367.546875 116.839844 367.546875 C 116.261719 367.546875 115.683594 367.515625 115.105469 367.460938 C 114.53125 367.402344 113.957031 367.316406 113.390625 367.207031 C 112.824219 367.09375 112.261719 366.953125 111.707031 366.785156 C 111.15625 366.617188 110.609375 366.421875 110.074219 366.199219 C 109.539062 365.976562 109.015625 365.730469 108.507812 365.457031 C 107.996094 365.183594 107.5 364.886719 107.019531 364.566406 C 106.539062 364.246094 106.074219 363.898438 105.625 363.53125 C 105.179688 363.164062 104.75 362.777344 104.339844 362.367188 C 103.929688 361.957031 103.542969 361.53125 103.175781 361.082031 C 102.808594 360.636719 102.464844 360.171875 102.140625 359.6875 C 101.820312 359.207031 101.523438 358.710938 101.25 358.203125 C 100.976562 357.691406 100.730469 357.167969 100.507812 356.632812 C 100.289062 356.097656 100.09375 355.554688 99.925781 355 C 99.757812 354.445312 99.617188 353.886719 99.503906 353.316406 C 99.390625 352.75 99.304688 352.175781 99.25 351.601562 C 99.191406 351.023438 99.164062 350.449219 99.164062 349.867188 C 99.164062 349.289062 99.191406 348.710938 99.25 348.136719 C 99.304688 347.558594 99.390625 346.988281 99.503906 346.421875 C 99.617188 345.851562 99.757812 345.292969 99.925781 344.738281 C 100.09375 344.183594 100.289062 343.640625 100.507812 343.105469 C 100.730469 342.570312 100.976562 342.046875 101.25 341.535156 C 101.523438 341.027344 101.820312 340.53125 102.140625 340.046875 C 102.464844 339.566406 102.808594 339.101562 103.175781 338.65625 C 103.542969 338.207031 103.929688 337.777344 104.339844 337.371094 C 104.75 336.960938 105.179688 336.570312 105.625 336.203125 C 106.074219 335.835938 106.539062 335.492188 107.019531 335.171875 C 107.5 334.851562 107.996094 334.554688 108.507812 334.28125 C 109.015625 334.007812 109.539062 333.757812 110.074219 333.539062 C 110.609375 333.316406 111.15625 333.121094 111.707031 332.953125 C 112.261719 332.785156 112.824219 332.644531 113.390625 332.53125 C 113.957031 332.417969 114.53125 332.335938 115.105469 332.277344 C 115.683594 332.222656 116.261719 332.191406 116.839844 332.191406 C 117.417969 332.191406 117.996094 332.222656 118.570312 332.277344 C 119.148438 332.335938 119.71875 332.417969 120.289062 332.53125 C 120.855469 332.644531 121.417969 332.785156 121.96875 332.953125 C 122.523438 333.121094 123.070312 333.316406 123.605469 333.539062 C 124.140625 333.757812 124.660156 334.007812 125.171875 334.28125 C 125.683594 334.554688 126.179688 334.851562 126.660156 335.171875 C 127.140625 335.492188 127.605469 335.835938 128.054688 336.203125 C 128.5 336.570312 128.929688 336.960938 129.339844 337.371094 C 129.746094 337.777344 130.136719 338.207031 130.503906 338.65625 C 130.871094 339.101562 131.214844 339.566406 131.535156 340.046875 C 131.859375 340.53125 132.15625 341.027344 132.429688 341.535156 C 132.703125 342.046875 132.949219 342.570312 133.171875 343.105469 C 133.390625 343.640625 133.585938 344.183594 133.753906 344.738281 C 133.921875 345.292969 134.0625 345.851562 134.175781 346.421875 C 134.289062 346.988281 134.375 347.558594 134.429688 348.136719 C 134.488281 348.710938 134.515625 349.289062 134.515625 349.867188 Z M 134.515625 349.867188 " fill-opacity="1" fill-rule="nonzero"/></g><g clip-path="url(#4f817c01ba)"><path fill="#ffffff" d="M 311.261719 349.863281 C 311.261719 350.441406 311.234375 351.019531 311.175781 351.59375 C 311.121094 352.171875 311.035156 352.742188 310.921875 353.308594 C 310.808594 353.878906 310.667969 354.4375 310.5 354.992188 C 310.332031 355.546875 310.136719 356.089844 309.917969 356.625 C 309.695312 357.160156 309.449219 357.683594 309.175781 358.195312 C 308.902344 358.703125 308.605469 359.199219 308.285156 359.683594 C 307.960938 360.164062 307.617188 360.628906 307.25 361.074219 C 306.882812 361.523438 306.496094 361.949219 306.085938 362.359375 C 305.675781 362.769531 305.246094 363.15625 304.800781 363.523438 C 304.351562 363.890625 303.886719 364.238281 303.40625 364.558594 C 302.925781 364.878906 302.429688 365.175781 301.917969 365.449219 C 301.410156 365.722656 300.886719 365.96875 300.351562 366.191406 C 299.816406 366.414062 299.269531 366.609375 298.71875 366.777344 C 298.164062 366.945312 297.601562 367.085938 297.035156 367.199219 C 296.46875 367.3125 295.894531 367.394531 295.320312 367.453125 C 294.742188 367.507812 294.164062 367.539062 293.585938 367.539062 C 293.007812 367.539062 292.429688 367.507812 291.855469 367.453125 C 291.277344 367.394531 290.707031 367.3125 290.136719 367.199219 C 289.570312 367.085938 289.007812 366.945312 288.457031 366.777344 C 287.902344 366.609375 287.355469 366.414062 286.820312 366.191406 C 286.285156 365.96875 285.765625 365.722656 285.253906 365.449219 C 284.742188 365.175781 284.246094 364.878906 283.765625 364.558594 C 283.285156 364.238281 282.820312 363.890625 282.371094 363.523438 C 281.925781 363.15625 281.496094 362.769531 281.085938 362.359375 C 280.679688 361.949219 280.289062 361.523438 279.921875 361.074219 C 279.554688 360.628906 279.210938 360.164062 278.890625 359.683594 C 278.566406 359.199219 278.269531 358.703125 277.996094 358.195312 C 277.722656 357.683594 277.476562 357.160156 277.253906 356.625 C 277.035156 356.089844 276.839844 355.546875 276.671875 354.992188 C 276.503906 354.4375 276.363281 353.878906 276.25 353.308594 C 276.136719 352.742188 276.050781 352.171875 275.996094 351.59375 C 275.9375 351.019531 275.910156 350.441406 275.910156 349.863281 C 275.910156 349.28125 275.9375 348.703125 275.996094 348.128906 C 276.050781 347.554688 276.136719 346.980469 276.25 346.414062 C 276.363281 345.84375 276.503906 345.285156 276.671875 344.730469 C 276.839844 344.175781 277.035156 343.632812 277.253906 343.097656 C 277.476562 342.5625 277.722656 342.039062 277.996094 341.527344 C 278.269531 341.019531 278.566406 340.523438 278.890625 340.042969 C 279.210938 339.558594 279.554688 339.09375 279.921875 338.648438 C 280.289062 338.199219 280.679688 337.773438 281.085938 337.363281 C 281.496094 336.953125 281.925781 336.566406 282.371094 336.199219 C 282.820312 335.832031 283.285156 335.484375 283.765625 335.164062 C 284.246094 334.84375 284.742188 334.546875 285.253906 334.273438 C 285.765625 334 286.289062 333.753906 286.820312 333.53125 C 287.355469 333.308594 287.902344 333.113281 288.457031 332.945312 C 289.007812 332.777344 289.570312 332.636719 290.136719 332.523438 C 290.707031 332.410156 291.277344 332.328125 291.855469 332.269531 C 292.429688 332.214844 293.007812 332.183594 293.585938 332.183594 C 294.164062 332.183594 294.742188 332.214844 295.320312 332.269531 C 295.894531 332.328125 296.46875 332.410156 297.035156 332.523438 C 297.601562 332.636719 298.164062 332.777344 298.71875 332.945312 C 299.269531 333.113281 299.816406 333.308594 300.351562 333.53125 C 300.886719 333.753906 301.410156 334 301.917969 334.273438 C 302.429688 334.546875 302.925781 334.84375 303.40625 335.164062 C 303.886719 335.484375 304.351562 335.832031 304.800781 336.199219 C 305.246094 336.566406 305.675781 336.953125 306.085938 337.363281 C 306.496094 337.773438 306.882812 338.199219 307.25 338.648438 C 307.617188 339.09375 307.960938 339.558594 308.285156 340.042969 C 308.605469 340.523438 308.902344 341.019531 309.175781 341.527344 C 309.449219 342.039062 309.695312 342.5625 309.917969 343.097656 C 310.136719 343.632812 310.332031 344.175781 310.5 344.730469 C 310.667969 345.285156 310.808594 345.84375 310.921875 346.414062 C 311.035156 346.980469 311.121094 347.554688 311.175781 348.128906 C 311.234375 348.703125 311.261719 349.28125 311.261719 349.863281 Z M 311.261719 349.863281 " fill-opacity="1" fill-rule="nonzero"/></g><path fill="#ffffff" d="M 307.734375 56.453125 C 290.160156 56.453125 275.917969 70.699219 275.917969 88.269531 C 275.917969 105.84375 290.160156 120.085938 307.734375 120.085938 C 325.304688 120.085938 339.546875 105.84375 339.546875 88.269531 C 339.546875 70.699219 325.304688 56.453125 307.734375 56.453125 Z M 307.734375 98.875 C 301.871094 98.875 297.128906 94.125 297.128906 88.269531 C 297.128906 82.417969 301.878906 77.667969 307.734375 77.667969 C 313.585938 77.667969 318.335938 82.417969 318.335938 88.269531 C 318.335938 94.125 313.585938 98.875 307.734375 98.875 Z M 307.734375 98.875 " fill-opacity="1" fill-rule="nonzero"/><path fill="#ffffff" d="M 372.070312 33.902344 C 364.644531 23.933594 365.421875 24.925781 355.101562 11.351562 C 349.863281 4.492188 341.738281 -0.101562 332.476562 -0.101562 C 329.644531 -0.101562 326.960938 0.390625 324.417969 1.242188 C 316.710938 3.574219 268.84375 18.84375 268.84375 18.84375 C 268.84375 18.84375 226.140625 -0.101562 212.285156 -0.101562 C 205.925781 -0.101562 200.125 2.089844 195.390625 5.625 C 169.65625 24.851562 138.757812 47.976562 110.554688 69.257812 C 103.699219 74.417969 99.171875 82.550781 99.171875 91.808594 C 99.171875 93.570312 99.382812 95.203125 99.664062 96.894531 C 101.855469 108.984375 101.929688 109.484375 103.839844 120.085938 L 125.40625 120.085938 C 125.40625 120.085938 120.382812 93.609375 120.382812 91.808594 C 120.382812 88.835938 122.222656 87 123.355469 86.152344 C 134.949219 77.453125 147.039062 68.335938 159.125 59.285156 L 178.992188 87.851562 C 161.390625 100.578125 144.847656 112.59375 134.449219 120.09375 L 269.558594 120.09375 C 270.617188 119.386719 271.675781 118.683594 272.734375 117.96875 C 265.882812 109.984375 261.777344 99.585938 261.777344 88.277344 C 261.777344 62.96875 282.425781 42.324219 307.734375 42.324219 C 325.550781 42.324219 341.035156 52.574219 348.601562 67.425781 C 359.480469 60.144531 366.769531 55.265625 368.605469 54.066406 C 372.355469 51.59375 374.902344 47.203125 374.902344 42.332031 C 374.902344 39.144531 373.84375 36.25 372.070312 33.917969 Z M 196.167969 75.402344 L 176.089844 46.558594 C 187.117188 38.210938 197.933594 30.152344 208.042969 22.585938 C 209.390625 21.59375 210.875 21.101562 212.074219 21.101562 C 218.015625 21.101562 237.882812 28.949219 252.160156 34.890625 C 243.75 40.96875 220.558594 57.726562 196.160156 75.402344 Z M 196.167969 75.402344 " fill-opacity="1" fill-rule="nonzero"/><path fill="#ffffff" d="M 80.707031 134.226562 C 80.707031 134.226562 72.964844 83.203125 70.671875 68.191406 C 69.648438 61.511719 63.746094 56.453125 56.746094 56.453125 L 15.097656 56.453125 C 7.339844 56.453125 0.0859375 62.257812 0.1875 70.769531 C 0.273438 78.644531 7.261719 84.742188 15.136719 84.742188 L 44.796875 84.742188 C 44.796875 84.742188 84 300.457031 85.03125 306.316406 C 86.191406 312.972656 91.957031 318.054688 98.957031 318.054688 L 314.59375 318.054688 C 320.445312 318.054688 325.410156 313.230469 325.410156 307.488281 C 325.410156 301.148438 319.925781 296.839844 314.050781 296.839844 L 113.304688 296.839844 C 109.140625 296.839844 106.257812 293.414062 106.230469 289.765625 C 106.199219 285.972656 109.316406 282.699219 113.304688 282.699219 L 322.078125 282.699219 C 328.253906 282.699219 333.726562 278.714844 335.570312 272.820312 C 346.371094 238.195312 374.894531 134.234375 374.894531 134.234375 L 80.707031 134.234375 Z M 138.046875 176.644531 C 132.183594 176.644531 127.441406 171.894531 127.441406 166.042969 C 127.441406 160.1875 132.191406 155.4375 138.046875 155.4375 C 143.898438 155.4375 148.648438 160.1875 148.648438 166.042969 C 148.648438 171.894531 143.898438 176.644531 138.046875 176.644531 Z M 300.652344 176.644531 L 180.464844 176.644531 C 174.601562 176.644531 169.859375 171.894531 169.859375 166.042969 C 169.859375 160.1875 174.609375 155.4375 180.464844 155.4375 L 300.652344 155.4375 C 306.511719 155.4375 311.253906 160.1875 311.253906 166.042969 C 311.253906 171.894531 306.503906 176.644531 300.652344 176.644531 Z M 300.652344 176.644531 " fill-opacity="1" fill-rule="nonzero"/></svg>