<svg xmlns="http://www.w3.org/2000/svg" xmlns:xlink="http://www.w3.org/1999/xlink" width="500" zoomAndPan="magnify" viewBox="0 0 375 374.999991" height="500" preserveAspectRatio="xMidYMid meet" version="1.0"><defs><clipPath id="bc32a2229a"><path d="M 50.113281 0 L 324.613281 0 L 324.613281 375 L 50.113281 375 Z M 50.113281 0 " clip-rule="nonzero"/></clipPath></defs><path fill="#ffffff" d="M 187.511719 75.003906 L 260.054688 75.003906 C 266.964844 75.003906 272.554688 69.40625 272.554688 62.503906 C 272.554688 55.601562 266.964844 50.003906 260.054688 50.003906 L 187.511719 50.003906 C 180.609375 50.003906 175.011719 55.601562 175.011719 62.503906 C 175.011719 69.40625 180.609375 75.003906 187.511719 75.003906 Z M 187.511719 75.003906 " fill-opacity="1" fill-rule="nonzero"/><path fill="#ffffff" d="M 125.015625 137.5 L 260.054688 137.5 C 266.964844 137.5 272.554688 131.90625 272.554688 125 C 272.554688 118.097656 266.964844 112.503906 260.054688 112.503906 L 125.015625 112.503906 C 118.109375 112.503906 112.515625 118.097656 112.515625 125 C 112.515625 131.90625 118.109375 137.5 125.015625 137.5 Z M 125.015625 137.5 " fill-opacity="1" fill-rule="nonzero"/><path fill="#ffffff" d="M 125.015625 200 L 260.054688 200 C 266.964844 200 272.554688 194.402344 272.554688 187.5 C 272.554688 180.597656 266.964844 175 260.054688 175 L 125.015625 175 C 118.109375 175 112.515625 180.597656 112.515625 187.5 C 112.515625 194.402344 118.109375 200 125.015625 200 Z M 125.015625 200 " fill-opacity="1" fill-rule="nonzero"/><path fill="#ffffff" d="M 125.015625 262.496094 L 260.054688 262.496094 C 266.964844 262.496094 272.554688 256.902344 272.554688 250 C 272.554688 243.09375 266.964844 237.5 260.054688 237.5 L 125.015625 237.5 C 118.109375 237.5 112.515625 243.09375 112.515625 250 C 112.515625 256.902344 118.109375 262.496094 125.015625 262.496094 Z M 125.015625 262.496094 " fill-opacity="1" fill-rule="nonzero"/><path fill="#ffffff" d="M 125.015625 324.996094 L 260.054688 324.996094 C 266.964844 324.996094 272.554688 319.398438 272.554688 312.496094 C 272.554688 305.59375 266.964844 299.996094 260.054688 299.996094 L 125.015625 299.996094 C 118.109375 299.996094 112.515625 305.59375 112.515625 312.496094 C 112.515625 319.398438 118.109375 324.996094 125.015625 324.996094 Z M 125.015625 324.996094 " fill-opacity="1" fill-rule="nonzero"/><g clip-path="url(#bc32a2229a)"><path fill="#ffffff" d="M 87.5 374.996094 L 287.492188 374.996094 C 308.242188 374.996094 324.992188 358.121094 324.992188 337.496094 L 324.992188 37.503906 C 324.992188 16.878906 308.242188 0.00390625 287.492188 0.00390625 L 136.496094 0.00390625 C 125.621094 0.128906 115.246094 4.753906 108.125 13.003906 L 59.125 69.628906 C 53.25 76.503906 50 85.128906 50 94.128906 C 49.875 94.128906 50.125 337.371094 50 337.496094 C 50 358.121094 66.875 374.996094 87.5 374.996094 Z M 75 106.625 L 136.246094 106.625 C 143.121094 106.625 148.746094 101 148.746094 94.128906 L 148.746094 25.003906 L 287.492188 25.003906 C 294.367188 25.003906 299.992188 30.628906 299.992188 37.503906 L 299.992188 337.496094 C 299.992188 344.371094 294.367188 349.996094 287.492188 349.996094 L 87.5 349.996094 C 80.625 349.996094 75 344.371094 75 337.496094 Z M 75 106.625 " fill-opacity="1" fill-rule="nonzero"/></g></svg>