<svg xmlns="http://www.w3.org/2000/svg" xmlns:xlink="http://www.w3.org/1999/xlink" width="500" zoomAndPan="magnify" viewBox="0 0 375 374.999991" height="500" preserveAspectRatio="xMidYMid meet" version="1.0"><defs><clipPath id="0ad399f54e"><path d="M 0 0 L 375 0 L 375 362.164062 L 0 362.164062 Z M 0 0 " clip-rule="nonzero"/></clipPath></defs><g clip-path="url(#0ad399f54e)"><path fill="#ffffff" d="M 103.160156 182.554688 C 88.351562 182.554688 76.351562 170.550781 76.351562 155.742188 C 76.351562 140.9375 88.351562 128.9375 103.160156 128.9375 C 117.964844 128.9375 129.96875 140.9375 129.96875 155.742188 C 129.96875 170.550781 117.964844 182.554688 103.160156 182.554688 Z M 202.617188 141.914062 L 197.242188 141.117188 C 189.589844 139.976562 183.171875 134.753906 180.519531 127.492188 C 179.726562 125.316406 178.84375 123.183594 177.871094 121.09375 C 174.601562 114.058594 175.410156 105.800781 180.027344 99.566406 L 183.269531 95.195312 C 184.550781 93.46875 184.371094 91.0625 182.851562 89.542969 L 169.363281 76.054688 C 167.839844 74.535156 165.4375 74.355469 163.707031 75.636719 L 159.335938 78.875 C 153.101562 83.5 144.847656 84.300781 137.808594 81.03125 C 135.722656 80.0625 133.589844 79.179688 131.414062 78.382812 C 124.152344 75.730469 118.925781 69.3125 117.789062 61.664062 L 116.992188 56.285156 C 116.675781 54.160156 114.847656 52.582031 112.699219 52.582031 L 93.621094 52.582031 C 91.472656 52.582031 89.644531 54.160156 89.328125 56.285156 L 88.527344 61.664062 C 87.390625 69.3125 82.167969 75.730469 74.90625 78.382812 C 72.726562 79.179688 70.59375 80.0625 68.511719 81.03125 C 61.472656 84.300781 53.214844 83.5 46.980469 78.875 L 42.613281 75.636719 C 40.882812 74.355469 38.476562 74.535156 36.957031 76.054688 L 23.46875 89.542969 C 21.949219 91.0625 21.769531 93.46875 23.050781 95.195312 L 26.289062 99.566406 C 30.910156 105.800781 31.714844 114.058594 28.445312 121.09375 C 27.476562 123.183594 26.59375 125.316406 25.796875 127.492188 C 23.144531 134.753906 16.726562 139.976562 9.078125 141.117188 L 3.699219 141.914062 C 1.574219 142.230469 0 144.054688 0 146.207031 L 0 165.28125 C 0 167.433594 1.574219 169.261719 3.699219 169.578125 L 9.078125 170.375 C 16.726562 171.511719 23.144531 176.738281 25.796875 184 C 26.59375 186.175781 27.476562 188.308594 28.445312 190.394531 C 31.714844 197.433594 30.910156 205.691406 26.289062 211.921875 L 23.050781 216.292969 C 21.769531 218.023438 21.949219 220.425781 23.46875 221.945312 L 36.957031 235.4375 C 38.476562 236.957031 40.882812 237.132812 42.613281 235.855469 L 46.980469 232.613281 C 53.214844 227.992188 61.472656 227.1875 68.511719 230.460938 C 70.59375 231.425781 72.726562 232.308594 74.90625 233.105469 C 82.167969 235.757812 87.390625 242.179688 88.527344 249.828125 L 89.328125 255.207031 C 89.644531 257.332031 91.472656 258.90625 93.621094 258.90625 L 112.699219 258.90625 C 114.847656 258.90625 116.675781 257.332031 116.992188 255.207031 L 117.789062 249.828125 C 118.925781 242.179688 124.152344 235.757812 131.414062 233.105469 C 133.589844 232.308594 135.722656 231.425781 137.808594 230.460938 C 144.847656 227.1875 153.101562 227.992188 159.335938 232.613281 L 163.707031 235.855469 C 165.4375 237.132812 167.839844 236.957031 169.363281 235.4375 L 182.851562 221.945312 C 184.371094 220.425781 184.550781 218.023438 183.269531 216.292969 L 180.027344 211.921875 C 175.410156 205.691406 174.601562 197.433594 177.871094 190.394531 C 178.84375 188.308594 179.726562 186.175781 180.519531 184 C 183.171875 176.738281 189.589844 171.511719 197.242188 170.375 L 202.617188 169.578125 C 204.746094 169.261719 206.320312 167.433594 206.320312 165.28125 L 206.320312 146.207031 C 206.320312 144.054688 204.746094 142.230469 202.617188 141.914062 Z M 271.839844 285.714844 C 257.03125 285.714844 245.03125 273.714844 245.03125 258.90625 C 245.03125 244.101562 257.03125 232.097656 271.839844 232.097656 C 286.644531 232.097656 298.652344 244.101562 298.652344 258.90625 C 298.652344 273.714844 286.644531 285.714844 271.839844 285.714844 Z M 371.300781 245.074219 L 365.921875 244.277344 C 358.273438 243.140625 351.855469 237.914062 349.199219 230.652344 C 348.40625 228.476562 347.519531 226.34375 346.550781 224.257812 C 343.28125 217.21875 344.089844 208.960938 348.710938 202.730469 L 351.949219 198.359375 C 353.230469 196.632812 353.050781 194.226562 351.53125 192.703125 L 338.042969 179.214844 C 336.519531 177.695312 334.117188 177.519531 332.386719 178.796875 L 328.019531 182.035156 C 321.785156 186.660156 313.527344 187.464844 306.488281 184.195312 C 304.40625 183.226562 302.273438 182.34375 300.097656 181.546875 C 292.832031 178.890625 287.609375 172.476562 286.472656 164.824219 L 285.671875 159.445312 C 285.359375 157.320312 283.527344 155.742188 281.378906 155.742188 L 262.300781 155.742188 C 260.148438 155.742188 258.324219 157.320312 258.007812 159.445312 L 257.210938 164.824219 C 256.070312 172.476562 250.847656 178.890625 243.585938 181.546875 C 241.410156 182.34375 239.277344 183.226562 237.191406 184.195312 C 230.15625 187.464844 221.898438 186.660156 215.664062 182.035156 L 211.289062 178.796875 C 209.566406 177.519531 207.160156 177.695312 205.640625 179.214844 L 192.152344 192.703125 C 190.625 194.226562 190.449219 196.632812 191.730469 198.359375 L 194.972656 202.730469 C 199.589844 208.960938 200.394531 217.21875 197.128906 224.257812 C 196.15625 226.34375 195.273438 228.476562 194.480469 230.652344 C 191.828125 237.914062 185.40625 243.140625 177.761719 244.277344 L 172.378906 245.074219 C 170.253906 245.390625 168.679688 247.21875 168.679688 249.371094 L 168.679688 268.445312 C 168.679688 270.59375 170.253906 272.421875 172.378906 272.738281 L 177.761719 273.535156 C 185.40625 274.671875 191.828125 279.898438 194.480469 287.160156 C 195.273438 289.335938 196.15625 291.46875 197.128906 293.558594 C 200.394531 300.59375 199.589844 308.851562 194.972656 315.082031 L 191.730469 319.457031 C 190.449219 321.183594 190.625 323.589844 192.152344 325.109375 L 205.640625 338.597656 C 207.160156 340.117188 209.566406 340.296875 211.289062 339.015625 L 215.664062 335.773438 C 221.898438 331.152344 230.15625 330.351562 237.191406 333.621094 C 239.277344 334.589844 241.410156 335.472656 243.585938 336.269531 C 250.851562 338.921875 256.070312 345.339844 257.210938 352.988281 L 258.007812 358.367188 C 258.324219 360.492188 260.148438 362.066406 262.300781 362.066406 L 281.378906 362.066406 C 283.527344 362.066406 285.359375 360.492188 285.671875 358.367188 L 286.472656 352.988281 C 287.609375 345.339844 292.832031 338.921875 300.097656 336.269531 C 302.273438 335.472656 304.40625 334.589844 306.488281 333.621094 C 313.527344 330.351562 321.785156 331.152344 328.019531 335.773438 L 332.386719 339.015625 C 334.117188 340.296875 336.519531 340.117188 338.042969 338.597656 L 351.53125 325.109375 C 353.050781 323.589844 353.230469 321.183594 351.949219 319.457031 L 348.710938 315.082031 C 344.089844 308.851562 343.28125 300.59375 346.550781 293.558594 C 347.519531 291.46875 348.40625 289.335938 349.199219 287.160156 C 351.855469 279.898438 358.273438 274.671875 365.921875 273.535156 L 371.300781 272.738281 C 373.425781 272.421875 375.003906 270.59375 375.003906 268.445312 L 375.003906 249.371094 C 375.003906 247.21875 373.425781 245.390625 371.300781 245.074219 Z M 256.808594 94.78125 C 245.640625 94.78125 236.582031 85.722656 236.582031 74.558594 C 236.582031 63.386719 245.640625 54.332031 256.808594 54.332031 C 267.980469 54.332031 277.03125 63.386719 277.03125 74.558594 C 277.03125 85.722656 267.980469 94.78125 256.808594 94.78125 Z M 328.679688 64.5625 L 324.792969 63.980469 C 319.265625 63.160156 314.628906 59.382812 312.707031 54.140625 C 312.136719 52.566406 311.496094 51.023438 310.792969 49.515625 C 308.433594 44.433594 309.015625 38.464844 312.351562 33.960938 L 314.695312 30.800781 C 315.621094 29.558594 315.492188 27.816406 314.394531 26.71875 L 304.648438 16.972656 C 303.546875 15.871094 301.808594 15.746094 300.5625 16.671875 L 297.402344 19.011719 C 292.898438 22.351562 286.933594 22.933594 281.847656 20.570312 C 280.339844 19.867188 278.796875 19.230469 277.226562 18.65625 C 271.976562 16.738281 268.203125 12.097656 267.382812 6.570312 L 266.800781 2.6875 C 266.574219 1.148438 265.253906 0.0117188 263.703125 0.0117188 L 249.914062 0.0117188 C 248.363281 0.0117188 247.042969 1.148438 246.8125 2.6875 L 246.238281 6.570312 C 245.414062 12.097656 241.640625 16.738281 236.390625 18.65625 C 234.820312 19.230469 233.277344 19.867188 231.773438 20.570312 C 226.6875 22.933594 220.71875 22.351562 216.214844 19.011719 L 213.058594 16.671875 C 211.808594 15.746094 210.070312 15.871094 208.972656 16.972656 L 199.226562 26.71875 C 198.128906 27.816406 197.996094 29.558594 198.921875 30.800781 L 201.265625 33.960938 C 204.601562 38.464844 205.183594 44.433594 202.820312 49.515625 C 202.121094 51.023438 201.484375 52.566406 200.90625 54.140625 C 198.992188 59.382812 194.355469 63.160156 188.828125 63.980469 L 184.941406 64.5625 C 183.402344 64.789062 182.265625 66.109375 182.265625 67.664062 L 182.265625 81.449219 C 182.265625 83 183.402344 84.320312 184.941406 84.550781 L 188.828125 85.128906 C 194.355469 85.949219 198.992188 89.726562 200.90625 94.972656 C 201.484375 96.542969 202.121094 98.085938 202.820312 99.59375 C 205.183594 104.675781 204.601562 110.644531 201.265625 115.148438 L 198.921875 118.308594 C 197.996094 119.558594 198.128906 121.292969 199.226562 122.394531 L 208.972656 132.136719 C 210.070312 133.238281 211.808594 133.367188 213.058594 132.441406 L 216.214844 130.101562 C 220.71875 126.761719 226.6875 126.183594 231.773438 128.542969 C 233.277344 129.242188 234.820312 129.878906 236.390625 130.457031 C 241.640625 132.371094 245.414062 137.011719 246.238281 142.539062 L 246.8125 146.425781 C 247.042969 147.964844 248.363281 149.097656 249.914062 149.097656 L 263.703125 149.097656 C 265.253906 149.097656 266.574219 147.964844 266.800781 146.425781 L 267.382812 142.539062 C 268.203125 137.011719 271.976562 132.371094 277.226562 130.457031 C 278.796875 129.878906 280.339844 129.242188 281.847656 128.542969 C 286.933594 126.183594 292.898438 126.761719 297.402344 130.101562 L 300.5625 132.441406 C 301.808594 133.367188 303.546875 133.238281 304.648438 132.136719 L 314.394531 122.394531 C 315.492188 121.292969 315.621094 119.558594 314.695312 118.308594 L 312.351562 115.148438 C 309.015625 110.644531 308.433594 104.675781 310.792969 99.59375 C 311.496094 98.085938 312.136719 96.542969 312.707031 94.972656 C 314.628906 89.726562 319.265625 85.949219 324.792969 85.128906 L 328.679688 84.550781 C 330.214844 84.320312 331.351562 83 331.351562 81.449219 L 331.351562 67.664062 C 331.351562 66.109375 330.214844 64.789062 328.679688 64.5625 " fill-opacity="1" fill-rule="nonzero"/></g></svg>