<svg xmlns="http://www.w3.org/2000/svg" xmlns:xlink="http://www.w3.org/1999/xlink" width="500" zoomAndPan="magnify" viewBox="0 0 375 374.999991" height="500" preserveAspectRatio="xMidYMid meet" version="1.0"><defs><clipPath id="a2586f987e"><path d="M 0 1.132812 L 375 1.132812 L 375 375 L 0 375 Z M 0 1.132812 " clip-rule="nonzero"/></clipPath></defs><path fill="#ffffff" d="M 212.785156 285.167969 L 205.078125 280.144531 L 194.1875 282.445312 L 159.714844 272.472656 C 155.152344 271.09375 150.164062 273.816406 148.824219 278.339844 C 147.441406 282.90625 150.164062 287.890625 154.730469 289.230469 L 193.726562 300.582031 L 211.867188 296.515625 L 212.785156 285.167969 " fill-opacity="1" fill-rule="nonzero"/><path fill="#ffffff" d="M 247.71875 386.785156 L 243.65625 376.816406 L 238.632812 340.042969 C 240.011719 338.238281 240.433594 336.4375 240.894531 334.136719 L 247.257812 277.917969 C 248.179688 270.632812 242.734375 263.847656 235.449219 262.925781 C 228.199219 262.003906 221.414062 267.488281 220.492188 274.699219 L 214.589844 330.992188 C 214.589844 332.792969 214.589844 335.054688 215.507812 336.859375 L 208.261719 354.574219 L 199.632812 375.472656 L 197.371094 422.640625 C 197.371094 428.085938 201.433594 433.070312 206.878906 433.070312 L 207.339844 433.070312 C 208.261719 433.070312 209.144531 432.609375 210.0625 432.609375 C 214.167969 431.230469 217.3125 428.085938 217.3125 423.558594 L 218.691406 380.421875 L 222.335938 371.832031 L 223.675781 381.339844 L 243.65625 427.164062 C 244.078125 428.507812 245.457031 429.886719 246.339844 430.808594 C 248.179688 432.148438 250.441406 433.070312 252.703125 433.070312 C 254.085938 433.070312 255.425781 432.609375 256.769531 432.148438 C 261.792969 429.886719 264.054688 424.019531 261.792969 418.996094 L 247.71875 386.785156 " fill-opacity="1" fill-rule="nonzero"/><path fill="#ffffff" d="M 225.480469 258.402344 C 230.464844 260.203125 235.910156 259.742188 240.011719 257.480469 C 242.273438 256.101562 244.535156 253.835938 246.339844 251.113281 C 250.902344 242.984375 247.71875 232.976562 240.011719 228.914062 C 239.089844 228.453125 238.210938 227.992188 237.289062 227.53125 L 226.859375 227.53125 C 223.214844 228.914062 219.574219 231.597656 217.769531 235.238281 C 213.246094 243.40625 216.429688 253.414062 224.136719 257.480469 C 224.136719 257.941406 224.597656 257.941406 225.480469 258.402344 " fill-opacity="1" fill-rule="nonzero"/><g clip-path="url(#a2586f987e)"><path fill="#ffffff" d="M 276.75 187.152344 C 268.160156 187.152344 261.792969 180.367188 261.792969 172.199219 C 261.792969 164.03125 268.582031 157.203125 276.75 157.203125 C 284.914062 157.203125 291.742188 164.03125 291.742188 172.199219 C 291.742188 179.90625 285.375 187.152344 276.75 187.152344 Z M 227.78125 203.949219 L 147.902344 203.949219 L 147.902344 183.96875 L 227.78125 183.96875 C 227.78125 183.511719 227.78125 203.949219 227.78125 203.949219 Z M 98.894531 187.152344 C 90.726562 187.152344 83.941406 180.367188 83.941406 172.199219 C 83.941406 164.03125 90.726562 157.203125 98.894531 157.203125 C 107.0625 157.203125 113.890625 164.03125 113.890625 172.199219 C 113.890625 180.367188 107.0625 187.152344 98.894531 187.152344 Z M 108.445312 81.890625 C 111.167969 72.804688 121.136719 65.554688 130.648438 65.554688 L 244.996094 65.554688 C 254.085938 65.554688 264.515625 73.261719 267.238281 81.890625 L 278.589844 123.191406 L 97.09375 123.191406 Z M 371.121094 415.8125 C 368.398438 415.8125 365.675781 408.105469 365.675781 398.136719 L 365.675781 8.378906 C 365.675781 4.316406 360.6875 1.132812 354.820312 1.132812 C 348.878906 1.132812 343.894531 4.316406 343.894531 7.957031 L 343.894531 218.023438 C 343.894531 219.363281 342.550781 220.707031 341.207031 220.707031 L 312.140625 220.707031 C 314.863281 218.445312 316.707031 215.300781 316.707031 211.65625 L 316.707031 161.730469 C 316.246094 150.417969 309.417969 140.40625 299.910156 135.882812 C 307.617188 135.421875 313.945312 129.058594 313.945312 120.929688 C 313.945312 112.761719 307.15625 105.933594 298.988281 105.933594 L 284.914062 105.933594 L 276.785156 78.707031 C 273.144531 66.015625 259.953125 56.46875 246.835938 55.585938 L 129.304688 55.585938 C 116.152344 56.046875 103.460938 66.015625 99.355469 78.707031 L 91.1875 105.933594 L 77.113281 105.933594 C 68.949219 105.933594 62.160156 112.722656 62.160156 120.929688 C 62.160156 128.636719 68.527344 135.421875 76.234375 135.882812 C 66.683594 140.40625 59.898438 149.957031 59.898438 161.730469 L 59.898438 212.578125 C 59.898438 216.640625 61.699219 219.363281 64.421875 221.625 L 35.855469 221.625 C 34.472656 221.625 33.132812 220.285156 33.132812 218.902344 L 33.132812 8.839844 C 33.132812 5.199219 28.144531 2.054688 22.242188 2.054688 C 15.875 1.59375 10.890625 4.777344 10.890625 8.839844 L 10.890625 398.597656 C 10.890625 408.105469 8.167969 415.8125 5.445312 415.8125 C 2.261719 415.8125 0 419.917969 0 424.441406 C 0 429.425781 2.722656 433.070312 5.445312 433.070312 L 39.035156 433.070312 C 42.179688 433.070312 44.480469 428.96875 44.480469 424.441406 C 44.480469 419.457031 41.722656 415.8125 39.035156 415.8125 C 35.855469 415.8125 33.554688 415.390625 33.554688 414.894531 L 33.554688 240.683594 C 33.554688 238.882812 34.933594 237.503906 36.3125 237.503906 L 71.25 237.503906 L 71.25 249.3125 C 71.25 254.296875 75.3125 258.402344 80.296875 258.402344 L 98.894531 258.402344 C 103.882812 258.402344 107.984375 254.296875 107.984375 249.3125 L 107.984375 224.347656 L 173.328125 224.347656 C 173.328125 227.070312 173.789062 229.335938 173.789062 229.792969 L 192.386719 265.648438 L 212.785156 279.261719 L 213.246094 273.816406 C 213.707031 269.292969 215.507812 265.648438 218.691406 262.464844 L 205.5 253.835938 L 191.003906 224.347656 L 267.238281 224.347656 L 267.238281 249.3125 C 267.238281 254.296875 271.304688 258.402344 276.328125 258.402344 L 294.886719 258.402344 C 299.871094 258.402344 303.972656 254.296875 303.972656 249.3125 L 303.972656 237.503906 L 339.828125 237.503906 C 341.171875 237.503906 342.550781 238.882812 342.550781 240.683594 L 342.550781 414.894531 C 342.550781 415.390625 339.828125 415.8125 336.644531 415.8125 C 333.460938 415.8125 330.738281 419.917969 330.738281 424.441406 C 330.738281 429.425781 333.460938 433.070312 336.644531 433.070312 L 369.738281 433.070312 C 372.5 433.070312 375.183594 428.96875 375.183594 424.441406 C 376.144531 419.917969 373.878906 415.8125 371.121094 415.8125 " fill-opacity="1" fill-rule="nonzero"/></g></svg>